<svg id="Noir" xmlns="http://www.w3.org/2000/svg" viewBox="0 0 407.33 314.72"><defs><style>.cls-1{fill:#282828;}</style></defs><title>logo_evil_air</title><path class="cls-1" d="M600.67,135,569.72,226.2H457.65l-42.71-46.74a.13.13,0,0,0,0-.05l-4.7-5.13A23.52,23.52,0,0,0,395.26,169a22.67,22.67,0,0,0-3.21.23l21.56,38.5L424,226.2H364.28A67.81,67.81,0,0,1,300.69,135Z" transform="translate(-193.34 -134.95)"/><path class="cls-1" d="M524.94,358.25l-31,91.41H193.34l41.85-114c12-32.79,35.89-60.19,67.33-75.43A135.29,135.29,0,0,1,362,246.6c1.7,0,3.41,0,5.1.1l0-.1h55l-17.88,20-36,40.25a31.79,31.79,0,0,0,4.5.31A32.31,32.31,0,0,0,391.79,301l3.85-3.26.07-.07,60.14-51H506l-23.75,70.06L475,338H336.12l-6.86,20.24Z" transform="translate(-193.34 -134.95)"/></svg>